<svg width="236" height="209" viewBox="0 0 236 209" fill="none" xmlns="http://www.w3.org/2000/svg">
<g id="Group 1">
<path id="Subtract" fill-rule="evenodd" clip-rule="evenodd" d="M25.1611 89.996C25.1611 84.4943 30.0774 76.2358 36.1271 70.2152C44.131 79.8885 49.8438 92.1095 51.5524 106.17C52.044 112.555 51.292 120.774 50.2724 128.046C50.0589 127.622 49.8634 127.176 49.6928 126.721C48.8805 123.959 47.0934 121.846 45.9562 121.846C44.819 121.846 42.382 120.221 40.595 118.109C36.046 113.071 26.9482 109.821 25.6485 113.071C24.3488 116.484 21.9119 114.209 21.9119 109.496C21.9119 107.384 21.0996 105.596 20.1248 105.596C18.9876 105.596 18.6627 103.971 19.3125 101.534C19.9624 99.2586 19.6375 97.4711 18.8252 97.4711C18.0129 97.4711 16.8756 98.7711 16.5507 100.234C16.0633 101.859 15.7384 100.884 15.5759 97.9586C15.4135 95.0336 16.5507 91.621 18.3378 89.996C20.9372 87.2335 21.0996 87.2335 21.587 90.646C22.3993 95.6836 25.1611 95.0336 25.1611 89.996ZM70.6503 145.571C70.6503 142.14 65.9958 137.701 61.8895 136.685C62.8378 135.703 63.8228 134.664 64.8327 133.573C71.3932 126.491 79.1011 117.152 84.6325 107.258C87.5844 112.731 90.4084 118.437 93.9867 126.219C97.0531 134.174 102.783 147.494 107.732 158.798C110.219 164.476 112.515 169.659 114.189 173.424C115.027 175.306 115.708 176.834 116.181 177.891C116.418 178.419 116.602 178.83 116.727 179.109C116.789 179.249 116.837 179.356 116.869 179.427L116.915 179.529L116.917 179.534L116.918 179.536C116.918 179.536 116.918 179.536 119.103 178.555L116.918 179.536L119.291 184.822L121.342 179.403L119.103 178.555C121.342 179.403 121.342 179.403 121.342 179.402L121.343 179.401L121.397 179.259C121.42 179.198 121.451 179.117 121.489 179.017L121.559 178.833C121.702 178.459 121.913 177.905 122.187 177.19C122.736 175.761 123.534 173.691 124.535 171.126C126.537 165.997 129.347 158.895 132.577 151.002C133.892 147.788 135.276 144.447 136.701 141.058C137.59 143.855 138.072 149.128 138.072 156.134C138.234 166.697 139.209 172.384 141.483 177.097C144.245 183.109 145.058 183.759 149.444 182.784C155.455 181.647 161.953 177.097 164.065 172.547C164.878 170.597 166.177 168.972 166.827 168.972C167.64 168.972 168.127 167.672 168.127 166.047C168.127 164.422 170.401 161.009 173.163 158.571C177.712 154.509 178.037 153.371 177.225 147.196C176.705 143.905 176.601 141.953 177.355 139.863C178.679 141.177 179.88 142.334 180.915 143.311C182.133 144.462 183.121 145.365 183.807 145.982C184.15 146.291 184.418 146.528 184.601 146.689C184.658 146.739 184.706 146.782 184.747 146.817C184.772 146.839 184.794 146.858 184.812 146.874L184.845 146.902L184.868 146.923L184.883 146.936L184.887 146.939L184.889 146.941C184.889 146.941 184.89 146.941 186.454 145.129L184.89 146.941L190.388 151.688L188.791 144.602L188.79 144.602L188.79 144.602L188.79 144.599L188.787 144.588L188.776 144.539C188.77 144.51 188.762 144.472 188.751 144.424L188.733 144.34C188.694 144.164 188.637 143.902 188.565 143.562C188.42 142.882 188.214 141.89 187.97 140.652C187.482 138.174 186.843 134.716 186.241 130.795C186.066 129.654 185.895 128.478 185.731 127.279C189.64 121.394 192.496 115.842 192.496 113.884C192.496 112.909 190.222 112.584 187.297 113.071L184.459 113.501C184.446 113.156 184.436 112.813 184.428 112.472L186.81 111.121C194.771 106.571 200.944 99.4211 199.807 95.8461C198.995 93.4085 199.482 92.596 202.081 92.596C203.868 92.596 205.656 94.0585 206.305 95.8461C206.793 97.6336 207.93 99.0961 208.58 99.0961C209.392 99.0961 210.367 102.834 211.017 107.384C212.316 117.296 215.403 117.296 217.353 107.546C218.815 99.9086 221.577 98.4461 221.902 105.109C223.039 134.034 206.305 167.997 182.424 186.034C171.051 194.484 151.394 204.397 144.408 205.209C141.646 205.534 138.722 206.347 137.584 206.997C136.447 207.647 127.674 208.297 118.089 208.297C104.442 208.297 98.4312 207.647 90.1456 204.884C77.7986 200.822 56.8411 189.934 56.8411 187.659C56.8411 186.684 56.1912 185.059 55.3789 183.759C54.5666 182.459 54.7291 181.159 55.5414 180.509C58.1408 178.884 61.2275 172.059 60.4152 169.784C59.9278 168.647 61.2275 167.022 63.502 165.884C66.5888 164.422 67.4011 162.959 67.4011 157.759C67.4011 154.184 68.2134 150.771 69.0257 150.284C70.0004 149.796 70.6503 147.521 70.6503 145.571ZM193.125 92.3557C192.606 92.8811 190.524 90.6612 189.098 88.4754C189.332 87.8943 189.574 87.3181 189.822 86.7467C190.115 87.0684 190.423 87.4379 190.738 87.8513C192.489 89.9426 193.444 92.0339 193.125 92.3557ZM177.062 161.984C175.438 169.622 180.474 169.297 183.723 161.497C185.023 158.246 185.998 154.671 185.673 153.371C184.861 149.634 178.362 156.134 177.062 161.984ZM39.8514 172.412C25.8714 157.782 13.6796 129.333 13.8422 111.939L14.0047 104.786L17.2559 110.801C19.044 114.215 21.1573 116.978 22.2952 116.978C23.4331 116.978 23.7582 119.254 23.108 123.318C22.2952 130.309 23.5956 133.722 27.0093 132.91C28.3098 132.584 29.1226 133.397 28.7975 134.86C28.4723 136.161 29.6102 140.225 31.3984 143.801C33.1865 147.378 35.7874 154.368 37.2504 159.407C38.7135 164.447 41.802 171.437 43.9153 174.851C47.6541 180.541 47.1664 180.215 39.8514 172.412Z" fill="#406B96"/>
<path id="Union" fill-rule="evenodd" clip-rule="evenodd" d="M130.976 0.0976562C145.749 9.7901 142.926 31.0289 142.857 56.5327C143.026 66.9286 145.609 81.8901 147.625 91.9414C154.269 117.345 186.454 145.129 186.454 145.129C186.454 145.129 181.001 120.941 182.174 105.933C186.043 73.9042 210 51.0612 235.247 45.277C225.823 43.5167 219.823 44.8562 204.998 49.4197C186.546 55.4866 178.898 56.454 171.153 52.859C161.319 48.6005 156.356 37.1919 149.692 21.8757L149.501 21.4367C145.996 13.1966 140.591 3.69324 130.976 0.0976562ZM180.767 48.1691C172.262 48.1691 165.368 41.2749 165.368 32.7706C165.368 24.2662 172.262 17.3721 180.767 17.3721C189.271 17.3721 196.165 24.2662 196.165 32.7706C196.165 41.2749 189.271 48.1691 180.767 48.1691Z" fill="#F8DA43"/>
<path id="Union_2" fill-rule="evenodd" clip-rule="evenodd" d="M105.133 0.0976562C90.3603 9.7901 93.1834 31.0289 93.2524 56.5327C93.0834 66.9286 90.5005 81.8901 88.4844 91.9414C81.8404 117.345 49.6553 145.129 49.6553 145.129C49.6553 145.129 55.1084 120.941 53.9359 105.933C50.0667 73.9042 26.1096 51.0612 0.862671 45.277C10.2862 43.5167 16.2865 44.8562 31.1121 49.4197C49.5632 55.4866 57.2112 56.454 64.957 52.859C74.7901 48.6005 79.7537 37.1919 86.4174 21.8757L86.6084 21.4367C90.1133 13.1966 95.5191 3.69324 105.133 0.0976562ZM55.3429 48.1691C63.8471 48.1691 70.7412 41.2749 70.7412 32.7706C70.7412 24.2662 63.8471 17.3721 55.3429 17.3721C46.8386 17.3721 39.9446 24.2662 39.9446 32.7706C39.9446 41.2749 46.8386 48.1691 55.3429 48.1691Z" fill="#32D4FB"/>
<path id="Union_3" opacity="0.8" fill-rule="evenodd" clip-rule="evenodd" d="M118.003 83.5867C127.328 83.5867 134.888 76.0207 134.888 66.6875C134.888 57.3544 127.328 49.7883 118.003 49.7883C108.678 49.7883 101.119 57.3544 101.119 66.6875C101.119 76.0207 108.678 83.5867 118.003 83.5867ZM72.8997 50.8836C78.3715 76.2324 95.4123 97.1217 117.847 98.1388C140.75 97.5911 157.902 77.0148 162.95 50.8836C165.731 72.3214 163.83 82.4877 153.414 99.5471C139.898 123.608 119.102 178.555 119.102 178.555C119.102 178.555 102.268 141.063 96.194 125.287C89.3252 110.344 85.1939 102.95 77.668 90.3151C71.8868 80.2445 71.0163 71.3754 72.8997 50.8836Z" fill="#F72E33"/>
</g>
</svg>
